<?xml version="1.0" encoding="UTF-8" standalone="no"?>
<!DOCTYPE svg PUBLIC "-//W3C//DTD SVG 1.1//EN" "http://www.w3.org/Graphics/SVG/1.1/DTD/svg11.dtd">
<svg width="100%" height="100%" viewBox="0 0 2500 805" version="1.1" xmlns="http://www.w3.org/2000/svg" xmlns:xlink="http://www.w3.org/1999/xlink" xml:space="preserve" xmlns:serif="http://www.serif.com/" style="fill-rule:evenodd;clip-rule:evenodd;stroke-linejoin:round;stroke-miterlimit:2;">
    <g id="BASELINE" transform="matrix(0.340347,0,0,0.340347,-71.1939,378.303)">
        <path d="M209.177,1233.78L209.177,699.539L479.949,699.539C517.414,699.539 549.284,711.703 575.558,736.031C601.832,760.359 617.646,794.175 622.998,837.479C622.998,846.237 622.511,855.604 621.538,865.578C620.565,875.553 618.619,885.649 615.699,895.867C611.32,909.491 604.022,922.749 593.804,935.643C583.586,948.537 568.503,959.85 548.554,969.581C575.315,982.718 592.466,999.87 600.008,1021.03C607.55,1042.2 611.564,1063.97 612.05,1086.36L612.05,1114.82C611.564,1135.74 612.415,1155.33 614.605,1173.57C616.794,1191.82 625.431,1206.05 640.514,1216.27L640.514,1233.78L554.393,1233.78C550.987,1224.05 548.432,1214.08 546.729,1203.86C545.026,1193.64 543.931,1183.18 543.445,1172.48C542.958,1167.61 542.593,1162.5 542.35,1157.15C542.107,1151.8 541.985,1146.69 541.985,1141.82L541.985,1133.8C541.012,1102.66 536.876,1074.68 529.578,1049.86C522.279,1025.05 497.951,1009.72 456.594,1003.88L278.512,1003.88L278.512,1233.78L209.177,1233.78ZM278.512,940.387L462.432,940.387C463.892,940.874 465.352,941.117 466.811,941.117L471.19,941.117C493.572,941.117 512.427,931.872 527.753,913.383C543.08,894.894 550.987,874.458 551.473,852.076L551.473,847.697C550.987,827.748 542.593,809.137 526.294,791.864C509.994,774.591 482.868,764.738 444.916,762.305L278.512,762.305L278.512,940.387Z" style="fill:rgb(255,251,237);fill-rule:nonzero;"/>
        <path d="M737.583,1233.78L737.583,699.539L1105.42,699.539L1105.42,756.467L806.918,756.467L806.918,929.44L1094.48,929.44L1094.48,992.206L806.918,992.206L806.918,1170.29L1117.1,1170.29L1117.1,1233.78L737.583,1233.78Z" style="fill:rgb(255,251,237);fill-rule:nonzero;"/>
        <path d="M1185.71,975.42C1186.19,965.202 1187.05,954.863 1188.26,944.401C1189.48,933.94 1191.06,923.358 1193.01,912.653C1202.74,860.591 1225.12,812.3 1260.15,767.779C1295.18,723.259 1350.89,698.566 1427.29,693.7C1439.45,693.7 1453.32,695.038 1468.89,697.714C1484.46,700.39 1500.51,705.134 1517.06,711.946C1542.36,723.137 1566.44,741.14 1589.31,765.955C1612.18,790.769 1628.97,826.045 1639.67,871.782L1565.23,871.782C1554.52,832.857 1536.4,803.907 1510.85,784.931C1485.31,765.955 1457.94,756.467 1428.75,756.467L1423.27,756.467C1421.57,756.467 1419.99,756.71 1418.53,757.197C1380.09,760.116 1344.69,778.97 1312.34,813.759C1279.98,848.549 1262.83,898.543 1260.88,963.742C1260.88,1042.08 1277.18,1098.64 1309.78,1133.43C1342.38,1168.22 1378.14,1185.86 1417.07,1186.35L1419.26,1186.35C1457.21,1186.35 1492.24,1172.84 1524.36,1145.84C1556.47,1118.83 1573.98,1082.95 1576.9,1038.19L1651.35,1038.19C1650.37,1044.51 1649.28,1050.96 1648.06,1057.53C1646.85,1064.1 1645.27,1070.79 1643.32,1077.6C1630.67,1120.9 1606.22,1160.56 1569.97,1196.56C1533.72,1232.57 1488.11,1250.57 1433.12,1250.57C1349.92,1253 1287.88,1226.36 1247.01,1170.65C1206.14,1114.94 1185.71,1049.86 1185.71,975.42Z" style="fill:rgb(255,251,237);fill-rule:nonzero;"/>
        <path d="M1714.11,946.226C1714.11,937.954 1714.6,929.561 1715.57,921.046C1716.55,912.532 1718.01,903.895 1719.95,895.137C1731.14,845.021 1758.27,798.919 1801.33,756.832C1844.39,714.744 1901.68,693.7 1973.21,693.7C1981.97,693.7 1990.73,694.065 1999.48,694.795C2008.24,695.525 2017,696.863 2025.76,698.809C2075.87,708.054 2122.1,733.477 2164.43,775.078C2206.76,816.679 2229.14,881.513 2231.57,969.581C2231.57,1044.51 2208.58,1110.08 2162.6,1166.27C2116.62,1222.47 2047.65,1250.57 1955.69,1250.57C1875.41,1250.57 1815.08,1222.11 1774.69,1165.18C1734.31,1108.25 1714.11,1035.27 1714.11,946.226ZM1783.45,981.259C1784.42,992.936 1786.12,1005.83 1788.56,1019.94C1790.99,1034.05 1794.88,1048.4 1800.24,1063C1810.45,1092.19 1827.48,1119.32 1851.32,1144.38C1875.17,1169.44 1909.95,1183.91 1955.69,1187.8C1959.1,1188.29 1962.38,1188.66 1965.55,1188.9C1968.71,1189.14 1971.99,1189.26 1975.4,1189.26C2023.57,1189.26 2066.63,1168.71 2104.58,1127.59C2142.53,1086.48 2160.05,1024.08 2157.13,940.387C2154.21,891.731 2136.45,848.914 2103.85,811.935C2071.25,774.956 2027.7,756.467 1973.21,756.467C1966.88,756.467 1960.56,756.832 1954.23,757.561C1947.91,758.291 1941.58,759.386 1935.26,760.846C1897.31,768.631 1862.52,790.04 1830.89,825.072C1799.26,860.104 1783.45,912.167 1783.45,981.259Z" style="fill:rgb(255,251,237);fill-rule:nonzero;"/>
        <path d="M2323.53,1233.78L2323.53,699.539L2594.3,699.539C2631.77,699.539 2663.64,711.703 2689.91,736.031C2716.19,760.359 2732,794.175 2737.35,837.479C2737.35,846.237 2736.87,855.604 2735.89,865.578C2734.92,875.553 2732.97,885.649 2730.06,895.867C2725.68,909.491 2718.38,922.749 2708.16,935.643C2697.94,948.537 2682.86,959.85 2662.91,969.581C2689.67,982.718 2706.82,999.87 2714.36,1021.03C2721.91,1042.2 2725.92,1063.97 2726.41,1086.36L2726.41,1114.82C2725.92,1135.74 2726.77,1155.33 2728.96,1173.57C2731.15,1191.82 2739.79,1206.05 2754.87,1216.27L2754.87,1233.78L2668.75,1233.78C2665.34,1224.05 2662.79,1214.08 2661.09,1203.86C2659.38,1193.64 2658.29,1183.18 2657.8,1172.48C2657.32,1167.61 2656.95,1162.5 2656.71,1157.15C2656.46,1151.8 2656.34,1146.69 2656.34,1141.82L2656.34,1133.8C2655.37,1102.66 2651.23,1074.68 2643.93,1049.86C2636.64,1025.05 2612.31,1009.72 2570.95,1003.88L2392.87,1003.88L2392.87,1233.78L2323.53,1233.78ZM2392.87,940.387L2576.79,940.387C2578.25,940.874 2579.71,941.117 2581.17,941.117L2585.55,941.117C2607.93,941.117 2626.78,931.872 2642.11,913.383C2657.44,894.894 2665.34,874.458 2665.83,852.076L2665.83,847.697C2665.34,827.748 2656.95,809.137 2640.65,791.864C2624.35,774.591 2597.22,764.738 2559.27,762.305L2392.87,762.305L2392.87,940.387Z" style="fill:rgb(255,251,237);fill-rule:nonzero;"/>
        <path d="M2851.94,699.539L3065.05,699.539C3071.38,699.539 3077.7,699.904 3084.03,700.634C3090.36,701.364 3096.68,702.215 3103.01,703.188C3146.8,712.433 3186.82,737.491 3223.07,778.362C3259.31,819.233 3277.44,877.134 3277.44,952.065C3277.44,964.229 3276.95,976.515 3275.98,988.922C3275.01,1001.33 3273.55,1013.86 3271.6,1026.51C3263.33,1078.57 3243.5,1126.13 3212.12,1169.19C3180.73,1212.25 3131.71,1233.78 3065.05,1233.78L2851.94,1233.78L2851.94,699.539ZM2921.28,1165.18L3081.84,1165.18C3120.28,1165.18 3149.59,1144.87 3169.79,1104.24C3189.98,1063.61 3200.08,1018.48 3200.08,968.851L3200.08,962.283C3199.1,912.167 3187.18,866.308 3164.31,824.707C3141.44,783.106 3106.41,762.305 3059.22,762.305L2921.28,762.305L2921.28,1165.18Z" style="fill:rgb(255,251,237);fill-rule:nonzero;"/>
        <rect x="3380.35" y="699.539" width="69.335" height="534.245" style="fill:rgb(255,251,237);"/>
        <path d="M3570.84,1233.78L3570.84,699.539L3656.96,699.539L3921.16,1130.15L3921.16,699.539L3990.5,699.539L3990.5,1233.78L3909.48,1233.78L3639.44,808.286L3639.44,1233.78L3570.84,1233.78Z" style="fill:rgb(255,251,237);fill-rule:nonzero;"/>
        <path d="M4075.89,935.278C4084.65,871.539 4109.58,815.097 4150.7,765.955C4191.81,716.812 4256.89,690.781 4345.93,687.861C4400.91,687.861 4449.45,704.283 4491.53,737.126C4533.62,769.969 4556.12,810.962 4559.04,860.104L4489.71,860.104C4489.22,855.239 4488.01,850.252 4486.06,845.143C4484.11,840.034 4481.68,834.803 4478.76,829.451C4467.57,809.989 4449.69,792.107 4425.12,775.808C4400.55,759.508 4372.2,751.358 4340.09,751.358C4335.71,751.358 4331.33,751.479 4326.95,751.723C4322.57,751.966 4317.95,752.331 4313.09,752.817C4271.24,758.656 4232.8,778.362 4197.77,811.935C4162.74,845.508 4145.22,896.11 4145.22,963.742C4145.22,968.121 4145.34,972.622 4145.59,977.244C4145.83,981.867 4145.95,986.367 4145.95,990.746C4148.87,1038.43 4163.1,1082.22 4188.65,1122.12C4214.19,1162.02 4261.02,1181.96 4329.14,1181.96C4338.87,1181.96 4349.94,1180.99 4362.35,1179.05C4374.76,1177.1 4387.53,1173.69 4400.67,1168.83C4426.94,1159.58 4450.78,1142.68 4472.19,1118.1C4493.6,1093.53 4503.33,1057.41 4501.39,1009.72L4334.98,1009.72L4334.98,946.226L4564.88,946.226L4564.88,1233.78L4513.06,1233.78L4501.39,1170.29C4479.49,1190.72 4456.14,1207.02 4431.32,1219.19C4406.51,1231.35 4381.45,1239.38 4356.15,1243.27C4349.34,1244.73 4342.65,1245.7 4336.08,1246.19C4329.51,1246.68 4322.82,1246.92 4316.01,1246.92C4249.35,1246.92 4190.72,1220.28 4140.11,1167C4089.51,1113.73 4068.1,1036.48 4075.89,935.278Z" style="fill:rgb(255,251,237);fill-rule:nonzero;"/>
        <path d="M4846.6,1061.54L4915.94,1061.54C4915.94,1104.85 4930.41,1136.84 4959.36,1157.52C4988.31,1178.19 5020.31,1189.26 5055.34,1190.72L5061.18,1190.72C5092.32,1190.72 5120.9,1183.55 5146.93,1169.19C5172.96,1154.84 5187.93,1134.28 5191.82,1107.52C5192.31,1105.58 5192.55,1103.75 5192.55,1102.05L5192.55,1096.57C5192.55,1062.51 5178.32,1039.52 5149.85,1027.6C5121.39,1015.68 5088.91,1006.07 5052.42,998.775C5048.04,997.802 5043.9,996.95 5040.01,996.22C5036.12,995.49 5032.23,994.639 5028.33,993.666C4985.03,984.421 4945.74,969.824 4910.46,949.875C4875.19,929.926 4859.74,890.515 4864.12,831.641C4867.04,794.175 4884.31,761.819 4915.94,734.571C4947.56,707.324 4993.54,693.7 5053.88,693.7C5114.21,693.7 5162.5,707.567 5198.75,735.301C5235,763.035 5251.66,802.69 5248.75,854.266L5180.14,854.266L5180.14,846.237C5180.14,816.071 5167.37,792.959 5141.82,776.902C5116.28,760.846 5088.18,752.331 5057.53,751.358L5053.15,751.358C5023.47,751.358 4996.34,758.778 4971.77,773.618C4947.2,788.458 4934.18,811.692 4932.72,843.318C4936.62,869.106 4951.34,887.23 4976.88,897.691C5002.42,908.153 5031.98,917.032 5065.56,924.331C5071.39,925.79 5077.48,927.25 5083.8,928.71C5090.13,930.169 5096.45,931.629 5102.78,933.089C5142.19,942.334 5178.8,956.322 5212.62,975.055C5246.44,993.787 5266.26,1026.51 5272.1,1073.22C5275.02,1131.12 5254.1,1175.15 5209.33,1205.32C5164.57,1235.49 5114.94,1251.06 5060.45,1252.03L5058.26,1252.03C5004.73,1252.03 4955.71,1236.58 4911.19,1205.68C4866.67,1174.79 4845.14,1126.74 4846.6,1061.54Z" style="fill:rgb(255,251,237);fill-rule:nonzero;"/>
        <path d="M5490.32,1233.78L5490.32,756.467L5312.24,756.467L5312.24,699.539L5731.9,699.539L5731.9,756.467L5564.77,756.467L5564.77,1233.78L5490.32,1233.78Z" style="fill:rgb(255,251,237);fill-rule:nonzero;"/>
        <path d="M5806.35,1078.33L5806.35,699.539L5880.79,699.539L5880.79,1078.33C5880.79,1116.77 5894.54,1145.84 5922.03,1165.54C5949.52,1185.25 5979.56,1195.1 6012.16,1195.1C6045.25,1195.1 6075.66,1185.37 6103.39,1165.91C6131.13,1146.45 6144.99,1117.25 6144.99,1078.33L6144.99,699.539L6220.17,699.539L6220.17,1078.33C6220.17,1132.82 6198.88,1174.91 6156.31,1204.59C6113.73,1234.27 6066.9,1249.6 6015.81,1250.57L6011.43,1250.57C5962.78,1250.57 5917.77,1236.83 5876.41,1209.34C5835.05,1181.84 5811.7,1138.17 5806.35,1078.33Z" style="fill:rgb(255,251,237);fill-rule:nonzero;"/>
        <path d="M6345.7,699.539L6558.82,699.539C6565.14,699.539 6571.47,699.904 6577.79,700.634C6584.12,701.364 6590.44,702.215 6596.77,703.188C6640.56,712.433 6680.58,737.491 6716.83,778.362C6753.07,819.233 6771.2,877.134 6771.2,952.065C6771.2,964.229 6770.71,976.515 6769.74,988.922C6768.77,1001.33 6767.31,1013.86 6765.36,1026.51C6757.09,1078.57 6737.26,1126.13 6705.88,1169.19C6674.49,1212.25 6625.47,1233.78 6558.82,1233.78L6345.7,1233.78L6345.7,699.539ZM6415.04,1165.18L6575.6,1165.18C6614.04,1165.18 6643.36,1144.87 6663.55,1104.24C6683.74,1063.61 6693.84,1018.48 6693.84,968.851L6693.84,962.283C6692.86,912.167 6680.94,866.308 6658.07,824.707C6635.2,783.106 6600.17,762.305 6552.98,762.305L6415.04,762.305L6415.04,1165.18Z" style="fill:rgb(255,251,237);fill-rule:nonzero;"/>
        <rect x="6874.11" y="699.539" width="69.335" height="534.245" style="fill:rgb(255,251,237);"/>
        <path d="M7035.4,946.226C7035.4,937.954 7035.89,929.561 7036.86,921.046C7037.84,912.532 7039.3,903.895 7041.24,895.137C7052.43,845.021 7079.56,798.919 7122.62,756.832C7165.68,714.744 7222.97,693.7 7294.5,693.7C7303.26,693.7 7312.01,694.065 7320.77,694.795C7329.53,695.525 7338.29,696.863 7347.05,698.809C7397.16,708.054 7443.39,733.477 7485.72,775.078C7528.05,816.679 7550.43,881.513 7552.86,969.581C7552.86,1044.51 7529.87,1110.08 7483.89,1166.27C7437.91,1222.47 7368.94,1250.57 7276.98,1250.57C7196.7,1250.57 7136.36,1222.11 7095.98,1165.18C7055.6,1108.25 7035.4,1035.27 7035.4,946.226ZM7104.74,981.259C7105.71,992.936 7107.41,1005.83 7109.85,1019.94C7112.28,1034.05 7116.17,1048.4 7121.52,1063C7131.74,1092.19 7148.77,1119.32 7172.61,1144.38C7196.45,1169.44 7231.24,1183.91 7276.98,1187.8C7280.39,1188.29 7283.67,1188.66 7286.83,1188.9C7290,1189.14 7293.28,1189.26 7296.69,1189.26C7344.86,1189.26 7387.92,1168.71 7425.87,1127.59C7463.82,1086.48 7481.34,1024.08 7478.42,940.387C7475.5,891.731 7457.74,848.914 7425.14,811.935C7392.54,774.956 7348.99,756.467 7294.5,756.467C7288.17,756.467 7281.85,756.832 7275.52,757.561C7269.2,758.291 7262.87,759.386 7256.55,760.846C7218.59,768.631 7183.8,790.04 7152.18,825.072C7120.55,860.104 7104.74,912.167 7104.74,981.259Z" style="fill:rgb(255,251,237);fill-rule:nonzero;"/>
    </g>
    <g id="AIRVAL" transform="matrix(0.897189,0,0,0.897188,-136.591,-641.107)">
        <path d="M373.391,917.032C348.577,1063.73 412.073,1233.78 673.357,1233.78L728.825,1233.78L728.825,715.595C658.76,712.676 563.151,718.515 509.142,729.463C306.976,770.334 215.015,893.677 152.249,1233.78L362.444,1233.78C353.686,1145.47 347.847,1017.02 373.391,917.032ZM555.852,770.334L555.852,998.775C478.489,998.775 440.537,934.549 442.727,885.649C445.646,820.693 482.138,778.362 555.852,770.334Z" style="fill:rgb(255,251,237);fill-rule:nonzero;"/>
        <rect x="787.942" y="715.595" width="204.356" height="518.189" style="fill:rgb(255,251,237);"/>
        <path d="M1271.83,999.505C1331.68,1001.69 1453.56,980.529 1481.29,911.194C1500.27,863.754 1501,789.31 1461.59,752.817C1421.45,715.595 1357.95,716.325 1265.99,715.595L1060.9,715.595L1060.9,1233.78L1265.99,1233.78L1265.99,1007.53C1279.13,1142.55 1373.28,1241.08 1506.11,1241.08L1506.11,993.666C1450.64,1014.83 1362.33,1030.16 1271.83,999.505ZM1265.99,715.595C1265.99,715.595 1265.99,719.975 1266.72,720.704C1267.45,720.704 1338.24,718.515 1362.33,744.059C1387.14,770.334 1381.31,837.479 1265.99,859.375L1265.99,715.595Z" style="fill:rgb(255,251,237);fill-rule:nonzero;"/>
        <path d="M1911.9,937.468C1885.63,936.008 1834.54,927.98 1803.15,892.218C1765.93,849.887 1768.85,806.826 1800.97,715.595L1935.99,715.595C1930.88,873.972 1929.42,1025.78 1906.06,1102.41C1882.71,1178.32 1839.65,1233.78 1686.38,1233.78L1586.39,1233.78L1475.45,715.595L1667.4,715.595L1746.96,1075.41C1808.26,1084.17 1890.01,1054.24 1906.06,991.476C1909.71,976.879 1910.44,959.363 1911.9,937.468Z" style="fill:rgb(255,251,237);fill-rule:nonzero;"/>
        <path d="M2146.91,917.032C2122.1,1063.73 2185.59,1233.78 2446.88,1233.78L2502.35,1233.78L2502.35,715.595C2432.28,712.676 2336.67,718.515 2282.66,729.463C2080.49,770.334 1988.54,893.677 1925.77,1233.78L2135.96,1233.78C2127.2,1145.47 2121.37,1017.02 2146.91,917.032ZM2329.37,770.334L2329.37,998.775C2252.01,998.775 2214.06,934.549 2216.25,885.649C2219.17,820.693 2255.66,778.362 2329.37,770.334Z" style="fill:rgb(255,251,237);fill-rule:nonzero;"/>
        <path d="M2938.06,1233.78L2938.06,1002.42C2938.06,1003.88 2844.64,998.045 2792.82,1055.7C2746.11,1108.98 2765.82,1169.56 2786.98,1208.24C2759.25,1198.02 2728.6,1162.26 2728.6,1117.74C2728.6,1072.49 2747.57,1041.11 2773.85,1022.13L2773.85,715.595L2569.49,715.595L2569.49,1233.78L2938.06,1233.78Z" style="fill:rgb(255,251,237);fill-rule:nonzero;"/>
    </g>
</svg>
